<svg xmlns="http://www.w3.org/2000/svg" xmlns:xlink="http://www.w3.org/1999/xlink" viewBox="0 0 238.31 203.41"><defs><style>.cls-1{fill:none;}.cls-2{isolation:isolate;}.cls-3{fill:#f8e0c7;}.cls-4{fill:#42beab;}.cls-5{fill:url(#linear-gradient);}.cls-6{fill:#f15d2f;}.cls-7{fill:#e5c8ae;}.cls-8{fill:#fff;}.cls-17,.cls-21,.cls-9{mix-blend-mode:multiply;}.cls-9{fill:url(#linear-gradient-2);}.cls-10{fill:#141824;}.cls-11{fill:url(#linear-gradient-3);}.cls-12{fill:url(#linear-gradient-4);}.cls-13{fill:url(#radial-gradient);}.cls-14{fill:url(#linear-gradient-5);}.cls-15{fill:#eae2de;}.cls-16{fill:url(#linear-gradient-6);}.cls-17{fill:#cad8cc;}.cls-18,.cls-19,.cls-20{mix-blend-mode:soft-light;}.cls-18{fill:url(#radial-gradient-2);}.cls-19{fill:url(#radial-gradient-3);}.cls-20{fill:url(#radial-gradient-4);}.cls-21{fill:url(#radial-gradient-5);}.cls-22{fill:url(#linear-gradient-7);}.cls-23{fill:url(#linear-gradient-8);}.cls-24{fill:url(#linear-gradient-9);}.cls-25{fill:url(#linear-gradient-10);}.cls-26{fill:url(#linear-gradient-11);}.cls-27{fill:url(#linear-gradient-12);}.cls-28{fill:url(#linear-gradient-13);}.cls-29{fill:url(#linear-gradient-14);}.cls-30{fill:url(#linear-gradient-15);}.cls-31{fill:url(#linear-gradient-16);}.cls-32{fill:url(#linear-gradient-17);}.cls-33{fill:url(#linear-gradient-18);}.cls-34{fill:url(#linear-gradient-19);}.cls-35{fill:url(#linear-gradient-20);}.cls-36{clip-path:url(#clip-path);}.cls-37{fill:url(#linear-gradient-21);}.cls-38{fill:url(#linear-gradient-22);}.cls-39{fill:url(#linear-gradient-23);}.cls-40{fill:url(#linear-gradient-24);}.cls-41{fill:url(#linear-gradient-25);}.cls-42{fill:url(#linear-gradient-26);}.cls-43{fill:url(#linear-gradient-27);}.cls-44{fill:url(#linear-gradient-28);}</style><linearGradient id="linear-gradient" x1="23.75" y1="87.73" x2="228.43" y2="177.92" gradientUnits="userSpaceOnUse"><stop offset="0" stop-color="#e9e6e1"/><stop offset="0.03" stop-color="#e8e5df"/><stop offset="0.65" stop-color="#cfcbc1"/><stop offset="1" stop-color="#c6c2b6"/></linearGradient><linearGradient id="linear-gradient-2" x1="-6281.18" y1="-582.14" x2="-6288.54" y2="-586.41" gradientTransform="translate(6415.16 176.53) rotate(-4.15)" gradientUnits="userSpaceOnUse"><stop offset="0" stop-color="#fbbd9f"/><stop offset="0.09" stop-color="#fcc6ad"/><stop offset="0.35" stop-color="#fddfd0"/><stop offset="0.6" stop-color="#fef1ea"/><stop offset="0.82" stop-color="#fffbfa"/><stop offset="1" stop-color="#fff"/></linearGradient><linearGradient id="linear-gradient-3" x1="-1166.24" y1="-1694.33" x2="-1151.91" y2="-1694.33" gradientTransform="translate(2182.68 -337.63) rotate(-68.46)" gradientUnits="userSpaceOnUse"><stop offset="0" stop-color="#9fa59d"/><stop offset="1" stop-color="#b4b9b3"/></linearGradient><linearGradient id="linear-gradient-4" x1="-1166.24" y1="-1693.81" x2="-1151.91" y2="-1693.81" gradientTransform="translate(2182.68 -337.63) rotate(-68.46)" gradientUnits="userSpaceOnUse"><stop offset="0" stop-color="#5f6861"/><stop offset="0.49" stop-color="#9fa59d"/></linearGradient><radialGradient id="radial-gradient" cx="-1187.26" cy="-1701.99" r="45.4" gradientTransform="translate(2182.68 -337.63) rotate(-68.46)" gradientUnits="userSpaceOnUse"><stop offset="0.21" stop-color="#d3d4d3"/><stop offset="0.51" stop-color="#8a897e"/><stop offset="0.7" stop-color="#505a50"/><stop offset="0.76" stop-color="#555f55"/><stop offset="0.83" stop-color="#646c64"/><stop offset="0.91" stop-color="#7d827d"/><stop offset="0.99" stop-color="#a0a09f"/><stop offset="1" stop-color="#a2a2a1"/></radialGradient><linearGradient id="linear-gradient-5" x1="-1197.18" y1="-1706.51" x2="-1185.95" y2="-1699.05" gradientTransform="translate(2182.68 -337.63) rotate(-68.46)" gradientUnits="userSpaceOnUse"><stop offset="0.21" stop-color="#d3d4d3"/><stop offset="0.51" stop-color="#9fa59d"/><stop offset="0.9" stop-color="#505a69"/><stop offset="0.92" stop-color="#555f6d"/><stop offset="0.94" stop-color="#646c77"/><stop offset="0.97" stop-color="#7d8288"/><stop offset="1" stop-color="#a0a09f"/><stop offset="1" stop-color="#a2a2a1"/></linearGradient><linearGradient id="linear-gradient-6" x1="-1196.59" y1="-1709.22" x2="-1165.23" y2="-1709.22" gradientTransform="translate(2182.68 -337.63) rotate(-68.46)" gradientUnits="userSpaceOnUse"><stop offset="0.1" stop-color="#505a69"/><stop offset="0.49" stop-color="#858d83"/></linearGradient><radialGradient id="radial-gradient-2" cx="-1185.36" cy="-1695.85" r="14.01" gradientTransform="translate(2182.68 -337.63) rotate(-68.46)" gradientUnits="userSpaceOnUse"><stop offset="0" stop-color="#fff"/><stop offset="0.15" stop-color="#f4f4f4"/><stop offset="0.41" stop-color="#d6d6d6"/><stop offset="0.76" stop-color="#a6a6a6"/><stop offset="1" stop-color="#818181"/></radialGradient><radialGradient id="radial-gradient-3" cx="10586.65" cy="-1696.84" r="13.88" gradientTransform="matrix(-0.2, 0.5, 0.93, 0.37, 3842.79, -4541.78)" xlink:href="#radial-gradient-2"/><radialGradient id="radial-gradient-4" cx="-1185.77" cy="-1551.42" r="5.53" gradientTransform="matrix(0.37, -0.93, 1.3, 0.51, 2638.11, -157.5)" gradientUnits="userSpaceOnUse"><stop offset="0" stop-color="#d2decb"/><stop offset="0.39" stop-color="#adb4a9"/><stop offset="0.79" stop-color="#8d8f8c"/><stop offset="1" stop-color="#818181"/></radialGradient><radialGradient id="radial-gradient-5" cx="-1173.5" cy="-1543.72" r="7.14" gradientTransform="matrix(0.37, -0.93, 1.35, 0.53, 2707.07, -129.64)" gradientUnits="userSpaceOnUse"><stop offset="0" stop-color="#e0dbe8"/><stop offset="0.85" stop-color="#faf9fb"/><stop offset="1" stop-color="#fff"/></radialGradient><linearGradient id="linear-gradient-7" x1="11.23" y1="172.11" x2="75.9" y2="172.11" gradientUnits="userSpaceOnUse"><stop offset="0" stop-color="#e9e6e1"/><stop offset="0.3" stop-color="#e6e2dd"/><stop offset="0.61" stop-color="#dbd8d0"/><stop offset="0.94" stop-color="#cac6bb"/><stop offset="1" stop-color="#c6c2b6"/></linearGradient><linearGradient id="linear-gradient-8" x1="115.93" y1="174.25" x2="134.32" y2="174.25" gradientUnits="userSpaceOnUse"><stop offset="0" stop-color="#e9e6e1"/><stop offset="0.33" stop-color="#ddd9d2"/><stop offset="1" stop-color="#c6c2b6"/></linearGradient><linearGradient id="linear-gradient-9" x1="121.43" y1="175.37" x2="163.47" y2="175.37" xlink:href="#linear-gradient-7"/><linearGradient id="linear-gradient-10" x1="144.72" y1="170.41" x2="139.96" y2="155.23" gradientUnits="userSpaceOnUse"><stop offset="0" stop-color="#c6c2b6"/><stop offset="0.06" stop-color="#cac6bb"/><stop offset="0.39" stop-color="#dbd8d0"/><stop offset="0.7" stop-color="#e6e2dd"/><stop offset="1" stop-color="#e9e6e1"/></linearGradient><linearGradient id="linear-gradient-11" x1="121.09" y1="162.9" x2="163.64" y2="162.9" xlink:href="#linear-gradient-10"/><linearGradient id="linear-gradient-12" x1="194.12" y1="96.94" x2="209.19" y2="96.94" xlink:href="#linear-gradient-7"/><linearGradient id="linear-gradient-13" x1="72.77" y1="184.96" x2="62.99" y2="166.65" xlink:href="#linear-gradient-10"/><linearGradient id="linear-gradient-14" x1="5273.62" y1="-12.25" x2="5271.81" y2="-10.52" gradientTransform="matrix(-1, 0.04, 0.04, 1, 5375.2, -94.81)" gradientUnits="userSpaceOnUse"><stop offset="0" stop-color="#c3beb1"/><stop offset="1" stop-color="#c3beb1"/></linearGradient><linearGradient id="linear-gradient-15" x1="5278.37" y1="-12.51" x2="5276.56" y2="-10.77" xlink:href="#linear-gradient-14"/><linearGradient id="linear-gradient-16" x1="5271.57" y1="-19.92" x2="5252.59" y2="-19.92" gradientTransform="matrix(-1, 0.04, 0.04, 1, 5375.2, -94.81)" gradientUnits="userSpaceOnUse"><stop offset="0" stop-color="#f6f6f3"/><stop offset="0.1" stop-color="#f2f2ee"/><stop offset="0.65" stop-color="#e1dfd7"/><stop offset="1" stop-color="#dad8cf"/></linearGradient><linearGradient id="linear-gradient-17" x1="-3061.91" y1="-19.61" x2="-3039.64" y2="-19.61" gradientTransform="translate(3138.1 -15.61) rotate(-2.02)" gradientUnits="userSpaceOnUse"><stop offset="0" stop-color="#f6f6f3"/><stop offset="0.37" stop-color="#efeeea"/><stop offset="0.98" stop-color="#dbd9d0"/><stop offset="1" stop-color="#dad8cf"/></linearGradient><linearGradient id="linear-gradient-18" x1="193.12" y1="91.23" x2="238.31" y2="91.23" xlink:href="#linear-gradient-7"/><linearGradient id="linear-gradient-19" x1="101.92" y1="86.71" x2="101.92" y2="84.39" gradientTransform="matrix(1, 0, 0, 1, 0, 0)" xlink:href="#linear-gradient-14"/><linearGradient id="linear-gradient-20" x1="102.96" y1="96.27" x2="102.96" y2="93.89" gradientTransform="matrix(1, 0, 0, 1, 0, 0)" xlink:href="#linear-gradient-14"/><clipPath id="clip-path"><path class="cls-1" d="M142.36,155.51c12.2,0,20.4,3.82,20.4,7.39s-8.2,7.38-20.4,7.38S122,166.46,122,162.9s8.19-7.39,20.39-7.39Z"/></clipPath><linearGradient id="linear-gradient-21" x1="124.18" y1="165.75" x2="161.37" y2="165.75" gradientUnits="userSpaceOnUse"><stop offset="0" stop-color="#e58b5e"/><stop offset="0.99" stop-color="#e6a077"/></linearGradient><linearGradient id="linear-gradient-22" x1="125.39" y1="165.51" x2="160.82" y2="165.51" gradientUnits="userSpaceOnUse"><stop offset="0.01" stop-color="#fde3cd"/><stop offset="0.43" stop-color="#fcd9bb"/><stop offset="1" stop-color="#e5b590"/></linearGradient><linearGradient id="linear-gradient-23" x1="99.8" y1="117.14" x2="133.35" y2="117.14" gradientTransform="translate(24.4 50.18) rotate(-1.08)" xlink:href="#linear-gradient-21"/><linearGradient id="linear-gradient-24" x1="128.63" y1="165.51" x2="158.4" y2="165.51" xlink:href="#linear-gradient-22"/><linearGradient id="linear-gradient-25" x1="132.92" y1="165.7" x2="154.98" y2="165.7" xlink:href="#linear-gradient-21"/><linearGradient id="linear-gradient-26" x1="138.47" y1="166.1" x2="147.99" y2="166.1" gradientUnits="userSpaceOnUse"><stop offset="0" stop-color="#e5b590"/><stop offset="0.57" stop-color="#fcd9bb"/><stop offset="0.99" stop-color="#fde3cd"/></linearGradient><linearGradient id="linear-gradient-27" x1="148.47" y1="165.32" x2="148.47" y2="147.42" xlink:href="#linear-gradient-22"/><linearGradient id="linear-gradient-28" x1="204.65" y1="80.6" x2="204.65" y2="107.73" xlink:href="#linear-gradient-7"/></defs><g class="cls-2"><g id="Layer_2" data-name="Layer 2"><g id="Layer_3" data-name="Layer 3"><path class="cls-3" d="M173.5,115.2a7.92,7.92,0,0,0,3.71.49c2.3-.18,1.68.93,1.68.93l4.15-.51,1.27,1.63,3-1.12.46,2.53s3.67.1,4.5-.6,2.73-2.93,1.89-3.69S174.51,111,173.5,115.2Z"/><rect class="cls-4" y="186.13" width="196.32" height="17.29" rx="1.06"/><path class="cls-5" d="M40.53,75.38c-8.21,4.75-32,96.7-28.6,104.46s16.68,6.29,16.68,6.29H165.44s-10.64-53.54-10.06-64.79,2.19-14.83,6.12-17.39c7.09-4.63,64,0,71.49-5.14s-5.48-21.42-10-23.13c-6.3-2.38-66.17-13.41-77.38-14-4.3-.22-18.75-.52-35.43-.48C83.39,61.27,49.86,70,40.53,75.38Z"/><path class="cls-6" d="M65.66,104.45a2,2,0,0,0-1.95,1.77c-1.35,9.77-8.43,48.39-8.43,49.19v30.72H167.4l-9.77-41.62s-9.68-43.08-12.94-43.09S77.15,104,65.66,104.45Z"/><path class="cls-7" d="M78.6,64.34s6.24,15.91,23.32,15.91,21-19,21-19a10.21,10.21,0,0,1-6-5.44c-2.15-4.46-8.41-23.86-8.41-23.86H86.1s.32,23.56-1,27.16S78.6,64.34,78.6,64.34Z"/><path class="cls-3" d="M78.78,43.39s-.59-4.74-2.25-5-2.28,3.41-1.17,6.72c.9,2.66,4.47,8.26,5.56,7.43C81.34,52.19,78.78,43.39,78.78,43.39Z"/><path class="cls-3" d="M120.52,41.45s.14-4.77,1.77-5.21,2.58,3.18,1.79,6.57c-.65,2.73-3.69,8.64-4.85,7.92C118.78,50.45,120.52,41.45,120.52,41.45Z"/><path class="cls-3" d="M76,34.79c.41,8.83,4.19,15.81,7,23.14C85.78,65.47,95.82,71.68,101,71.44c5.51-.25,15.51-7.54,17.29-16.34,1.43-7.09,4.61-14.3,4.23-22.47-.89-19.1-9-28.28-23.58-27.57C83.59,5.8,75.09,15.7,76,34.79Z"/><path class="cls-8" d="M93.48,59.4a14.31,14.31,0,0,0,7.91,2.24,10.55,10.55,0,0,0,7.35-3Z"/><path class="cls-9" d="M106,38.71s-3.46,1.46-3,7.57c.3,4.16,2.09,8.21,1.31,9.17s-5.59.75-6.06.12c-1.08-1.46,3.73-12.93.59-18.72C97.18,33.88,105,37.83,106,38.71Z"/><path class="cls-10" d="M97.4,41.29a11.56,11.56,0,0,1-5.71,1.06,17.68,17.68,0,0,1-5.41-1.72Z"/><path class="cls-10" d="M105.14,40.93a20.79,20.79,0,0,0,6.94.27,8.52,8.52,0,0,0,4.07-2Z"/><path class="cls-10" d="M98.31,37.27c-.26.3-6.74-.19-8.44-.52a30.6,30.6,0,0,0-5.2-.16s1.93-2.23,2.54-2.37,9.92-.14,10.37.07S98.31,37.27,98.31,37.27Z"/><path class="cls-10" d="M103.92,37c.28.28,6.69-.82,8.36-1.3a30.19,30.19,0,0,1,5.16-.64s-2.13-2-2.75-2.12-9.89.78-10.32,1S103.92,37,103.92,37Z"/><path class="cls-10" d="M79.88,43.94c1.48.61-3.3-19.11,4.74-23.68,5.52-3.14,10.5-.34,17.94-.83,6.06-.41,9.16-3.16,14.84-.33,8,4,1.63,24.64,3,24.42s2-6.73,2-6.72S125.17,31,124.22,21C122.76,5.55,113.28-.26,100.76,0s-22,5.39-24.31,16.26-.62,21.93-.06,21.94C77.35,38.22,78.58,43.41,79.88,43.94Z"/><path class="cls-10" d="M64.39,67.23s-.57,10.63-.14,18.32c.46,8.19,1.79,18.91,1.79,18.91s1.16,7.18,5.18,7.11,3.87-7.38,3.88-7.38-1.9-12.44-2.44-20.65c-.58-8.77-.38-18-.38-18Z"/><path class="cls-10" d="M137.15,61.27s2.9,11,4.17,19.17c1.35,8.67,2.39,20.18,2.39,20.18s.45,7.75-3.5,8.5-5.41-6.94-5.42-6.93-.87-13.42-2.14-22.13c-1.37-9.31-3.58-18.93-3.58-18.93Z"/><path class="cls-11" d="M194.1,125.41a.71.71,0,0,1-1.36-.16l-.75-5.43a1.66,1.66,0,0,0-.88-1.25l-17.33-9.09a1.68,1.68,0,0,0-2.16.54l-3,4.41a1.63,1.63,0,0,0-.22,1.42l1.44,4.72a.72.72,0,0,1-.47.89.71.71,0,0,1-.88-.47l-1.44-4.72a3.09,3.09,0,0,1,.4-2.64l3-4.41a3.09,3.09,0,0,1,4-1l17.34,9.09a3.09,3.09,0,0,1,1.62,2.3l.75,5.43A.72.72,0,0,1,194.1,125.41Z"/><path class="cls-12" d="M194.58,125.6a.71.71,0,0,1-1.36-.16l-.75-5.43a1.66,1.66,0,0,0-.88-1.25l-17.33-9.09a1.68,1.68,0,0,0-2.16.54l-3,4.41a1.63,1.63,0,0,0-.22,1.42l1.44,4.72a.71.71,0,1,1-1.35.42l-1.44-4.72a3.09,3.09,0,0,1,.4-2.64l3-4.41a3.09,3.09,0,0,1,4-1l17.34,9.09a3.09,3.09,0,0,1,1.62,2.3l.75,5.43A.72.72,0,0,1,194.58,125.6Z"/><path class="cls-13" d="M164.56,118.63l-4.78,12.09L155,142.81s2.48.66,9.57,4.34c6.78,3.52,18.1,10,21.84,11.5a10.63,10.63,0,0,0,3.83-.13A1,1,0,0,0,191,158c.69-1.39,2.86-5.86,5.58-12.74,2.55-6.48,4.14-11.54,4.61-13.1a1,1,0,0,0-.18-.92,12.48,12.48,0,0,0-2.69-2.7c-4.23-1.67-16.47-4.44-23.82-6.48S164.56,118.63,164.56,118.63Z"/><path class="cls-14" d="M167.45,148.66a68.16,68.16,0,0,1-8.94-.5,9,9,0,0,0-3.67.35l.17-5.7S162.9,144.63,167.45,148.66Z"/><path class="cls-15" d="M154.84,148.51c.47-.14.61-4.43.66-5.47s2.13-4.78,5.1-12.31,4.5-11.88,4-12.1c-.32-.12-4.21,8.53-5.5,11.8s-4.26,11.14-4.29,12.88C154.76,144,154.5,148.61,154.84,148.51Z"/><path class="cls-16" d="M154.84,148.51c.32-.09.42-4.51.47-5.55s2.13-4.78,5.1-12.31,4.46-11.89,4.15-12-4.4,8.46-5.69,11.73-4.26,11.14-4.29,12.87C154.57,144,154.5,148.6,154.84,148.51Z"/><path class="cls-17" d="M172.88,121.58c7,2.38,25,5.88,25.16,9.55.26,7.79-9.78,27.63-9.78,27.63.74,0,1.5-.16,2-.24A1,1,0,0,0,191,158c.69-1.39,2.86-5.86,5.58-12.74,2.55-6.48,4.14-11.54,4.61-13.1a1,1,0,0,0-.18-.92,12.48,12.48,0,0,0-2.69-2.7c-4.23-1.67-16.47-4.44-23.82-6.48Z"/><path class="cls-18" d="M156.58,139.4a61,61,0,0,1,8.68,3.43c4.45,2.2,20.27,11.48,21.79,11.62s4.8-6.9,3.1-7.85-21.65-8.51-23.68-9.34-8.11-3.2-8.11-3.2Z"/><path class="cls-19" d="M163.4,122.12s4,1.81,8.69,3.42,22,5.46,23.23,6.21.19,4.79-1.66,4.21-21.5-7.15-23.54-7.94-8.11-3.2-8.11-3.2Z"/><path class="cls-20" d="M180.83,153.37c4,1.57,8.11.54,9.23-2.3s-1.19-6.41-5.17-8-8.1-.54-9.22,2.3S176.86,151.8,180.83,153.37Z"/><path class="cls-21" d="M187.93,129.88c5.34,2.11,8.5,6.79,7,10.46s-6.95,4.93-12.29,2.82-8.5-6.79-7.05-10.46S182.59,127.77,187.93,129.88Z"/><path class="cls-22" d="M12.47,168.47c.23-1.07,12.36-10.13,24.87-11.16C48.44,156.39,75.9,165,75.9,165s-4.31,6.35-5.13,11.25a45.23,45.23,0,0,0-.37,10s-44.38,1.66-52.33,0C8.32,184.21,11.59,172.63,12.47,168.47Z"/><path class="cls-23" d="M125.89,183h-.16a9.51,9.51,0,0,1-7.71-3.84,10.79,10.79,0,0,1-1.71-9.14c1.37-4.71,6.32-4.84,8.75-4.25l-.82,3.42c-.39-.09-3.79-.8-4.55,1.81a7.23,7.23,0,0,0,1.16,6.06,6,6,0,0,0,4.92,2.42h.12c4,0,5.64-1.88,5.71-2l2.72,2.24C134.21,179.88,131.62,183,125.89,183Z"/><path class="cls-24" d="M142.36,162.46l-20.93,1.88s8.51,18.7,9.72,20.49c1.07,1.57,5,3.44,11.21,3.44s10.15-1.87,11.22-3.44c1.2-1.79,9.89-20.92,9.89-20.92Z"/><ellipse class="cls-25" cx="142.36" cy="162.9" rx="21.27" ry="8.26"/><path class="cls-26" d="M142.36,155.51c12.2,0,20.4,3.82,20.4,7.39s-8.2,7.38-20.4,7.38S122,166.46,122,162.9s8.19-7.39,20.39-7.39Zm0-.88c-11.74,0-21.27,3.7-21.27,8.27s9.53,8.26,21.27,8.26,21.28-3.7,21.28-8.26-9.53-8.27-21.28-8.27Z"/><path class="cls-3" d="M113.2,174.49c-.27-5.17-1.74-15.24-2.85-15.38-2.56-.32-12.81,5.7-12.81,5.7-1,.62-2.29,2-3.72,2.94h0c-.22.27-2.67.46-7.51,0s-13.41-2.08-13.41-2.08l-6.23,12.68,3.73,7.9,23.24-1c5.2.23,15.4.57,17.11-.14C113.07,184.16,113.48,179.66,113.2,174.49Z"/><path class="cls-3" d="M110.35,159.11c.83-.53,8,5.18,8.69,6.22s3.74,4.68,3.74,7c0,1.27-4.7-2.39-6.25-3.93s-6.51-3-7-4S109.84,159.43,110.35,159.11Z"/><path class="cls-3" d="M109.78,179.22c1.21-.25,5.44-.75,7-.9.87-.08,4.74-1.32,5.79-.88.63.27.33,2.48,0,2.82a19.8,19.8,0,0,1-5.66,3.66,20.4,20.4,0,0,1-6.12,1.19C109.6,185.11,109.19,179.33,109.78,179.22Z"/><path class="cls-3" d="M109.53,165.11c.58-.79,8.36,3.19,9.35,3.92a21.8,21.8,0,0,1,3.9,3.26,2.41,2.41,0,0,1,.09,1.92c-.92.89-3.27-.35-5.33-1.08-2.21-.79-7.14,0-8-.82S109.17,165.59,109.53,165.11Z"/><path class="cls-3" d="M109.41,172.42c.59-.79,7.58.21,8.78.5a42.22,42.22,0,0,1,4.34,1.48c.63.27.91,2.37,0,3a28.5,28.5,0,0,1-4.66.81c-2.15.33-6.68,1.19-8.11,1C108.64,179,109.06,172.9,109.41,172.42Z"/><path class="cls-27" d="M207.12,107.28c-2,1.9-12.36-7.35-13-13.6s10-7.33,10-7.33S213.13,101.52,207.12,107.28Z"/><path class="cls-28" d="M79.68,166c0-.33-14.19-5.6-14.68-5.49s-5.83,7.8-7.31,14.45-1.38,11.9-.83,12,15.78-.43,15.83-.86-.43-7.21,2-12.87C75.89,170.41,79.73,166.49,79.68,166Z"/><path class="cls-29" d="M103,75l-1.48,5.68a12.17,12.17,0,0,0,5-.42C108.69,79.47,105.55,74.7,103,75Z"/><path class="cls-30" d="M99.93,75.35c.69.31,1.55,5.35,1.55,5.35A8.84,8.84,0,0,1,96,79.83C93.69,78.4,98.51,74.72,99.93,75.35Z"/><path class="cls-31" d="M125.87,61.27l-6.28-2.78s-1.08,5.09-8.22,10.51c-3.9,3-8.41,6-8.41,6s1.22,0,2.2,1.75,2.21,6.94,2.83,6.92,8.15-5.17,12.32-10.2S125.87,61.27,125.87,61.27Z"/><path class="cls-32" d="M77.52,64.53l5.79-4s1,4.26,7.81,9.41a67.46,67.46,0,0,0,8.81,5.41s-1.22.05-2.07,1.91-1.71,7.08-2.33,7.1-8.49-4.58-13-9.31A19.1,19.1,0,0,1,77.52,64.53Z"/><path class="cls-3" d="M215.75,90.3l-14-7s-13.94,7-14.07,7h0c-4,.74-14.49,8.57-15.73,10.37s21.39,11.24,23.26,10.52c1.64-.63,5.84-6.31,6.71-8.93h0c4.74-2.58,16.65-2.42,16.65-2.42Z"/><path class="cls-3" d="M171.93,100.68c-1.54,3.29-.66,12-.24,13.09a3.13,3.13,0,0,0,4,1.26c1.38-.87,3.47-12.14,3.11-12.85S172.61,99.22,171.93,100.68Z"/><path class="cls-3" d="M178.64,102.6c-1.72,3.21-3,11.24-2.61,12.37a3,3,0,0,0,3.94,1.3c1.38-.86,4.93-10.71,4.84-11.49C184.6,102.91,179.68,100.65,178.64,102.6Z"/><path class="cls-3" d="M190.47,107.1c-2.08,3-5.7,9.21-5.28,10.34s2,2.27,3.4,1.41,7.63-8.44,8.09-9.31C197.4,108.17,191.61,105.46,190.47,107.1Z"/><path class="cls-3" d="M184.46,105.2c-1.94,3.07-4.11,10.38-3.69,11.51s2.51,1.71,3.89.85,5.9-9.71,6-10.5C190.69,105.82,186,102.71,184.46,105.2Z"/><path class="cls-33" d="M237.49,85.16c-3.07-3.63-11-11.64-22.46-9.66-4.21.73-21.91,12.1-21.91,12.1s5.88-2.74,10.48,1.7c6.26,6,3.52,18,3.52,18s24.22-4.47,28.53-10.24C238.12,93.74,239.17,87.13,237.49,85.16Z"/><path class="cls-34" d="M103.1,85.54a1.18,1.18,0,1,1-1.18-1.18A1.17,1.17,0,0,1,103.1,85.54Z"/><circle class="cls-35" cx="102.96" cy="95.07" r="1.21"/><g class="cls-36"><path class="cls-37" d="M161.37,165.51c0,4.31-8.32,7.81-18.59,7.81s-18.6-3.5-18.6-7.81,8.64-7.32,18.91-7.32S161.37,161.2,161.37,165.51Z"/><path class="cls-38" d="M143.11,172.44c-10.6,0-17.72-3.58-17.72-6.93s7.12-6.93,17.72-6.93,17.71,3.59,17.71,6.93S153.7,172.44,143.11,172.44Z"/><path class="cls-39" d="M143.33,171.15c-10.42.2-17-3.51-17-6,0-2,4.21-5.77,16.4-6,10.43-.23,17.16,3.59,17.16,6.12C159.94,167,153.76,171,143.33,171.15Z"/><path class="cls-40" d="M143.51,161.54s-16-1.71-14.82,3.2c.69,2.92,13.81,5.23,13.81,5.23s16.61-2.52,15.88-5.95C157.56,160.17,145.94,161,143.51,161.54Z"/><path class="cls-41" d="M132.92,164.28c-.21,2,9.54,4.94,9.58,5s12.59-3.73,12.48-5.33-7-2.22-10-1.42a7.4,7.4,0,0,0-1.42.67s-2.6-.35-3.75-.55C137.6,162.21,133.13,162.37,132.92,164.28Z"/><path class="cls-42" d="M138.48,164.36c-.28.6,4.11,3.79,4.11,3.79s5.45-2.52,5.4-3.46-4.51-.28-4.51-.28S138.81,163.64,138.48,164.36Z"/></g><path class="cls-43" d="M154.84,148.51a14.42,14.42,0,0,0-4,6.3c-.93,3-2.31,9.35-3,10.2s-6.68,0-5.94-.56,1.94,0,3.48-1.72,2.42-9.17,6.34-13.45c1.89-2.08,3.37-2.05,3.37-2.05A2.75,2.75,0,0,1,154.84,148.51Z"/><path class="cls-44" d="M193.12,87.6l10.56-7.21s8.43.23,11.22,8.22.13,18.67.13,18.67h-7.91s2.22-13.28-3.8-18C197.93,85,193.12,87.6,193.12,87.6Z"/></g></g></g></svg>