<svg xmlns="http://www.w3.org/2000/svg" viewBox="0 0 72.54 99.54"><defs><style>.cls-1{isolation:isolate;}.cls-2{fill:#65bebd;}.cls-2,.cls-3,.cls-4,.cls-5,.cls-6{stroke:#141824;stroke-linecap:round;stroke-linejoin:round;}.cls-3{fill:#f9bc17;}.cls-4{fill:#f15d2f;}.cls-5{fill:#00b9c5;}.cls-6{fill:#f5834e;}.cls-7{fill:#fff;mix-blend-mode:soft-light;}.cls-8{fill:#b4c8d3;mix-blend-mode:multiply;}</style></defs><g class="cls-1"><g id="Layer_2" data-name="Layer 2"><g id="Layer_2-2" data-name="Layer 2"><g id="Coffee_card" data-name="Coffee card"><polygon class="cls-2" points="36.27 21.06 6.9 21.06 14.73 99.04 36.27 99.04 57.81 99.04 65.64 21.06 36.27 21.06"/><polygon class="cls-3" points="61.35 82.76 66.65 33.94 5.89 33.94 11.2 82.76 61.35 82.76"/><polygon class="cls-3" points="72.04 21.06 0.5 21.06 2.01 13.34 69.78 13.34 72.04 21.06"/><rect class="cls-4" x="8.84" y="5.97" width="54.86" height="7.37"/><rect class="cls-5" x="16.01" y="0.5" width="13.22" height="5.34"/><line class="cls-6" x1="8.2" y1="29.21" x2="28.69" y2="29.21"/><line class="cls-6" x1="57.71" y1="88.68" x2="36.27" y2="88.68"/><line class="cls-6" x1="37.19" y1="29.21" x2="45.61" y2="29.21"/><line class="cls-6" x1="55.28" y1="29.21" x2="63.7" y2="29.21"/><line class="cls-6" x1="20.82" y1="88.68" x2="29.24" y2="88.68"/><polygon class="cls-7" points="50.78 23.25 61.54 23.25 54.01 93.98 43.85 93.98 50.78 23.25"/><path class="cls-4" d="M52.42,58.35A16.15,16.15,0,1,1,36.27,42.21,16.15,16.15,0,0,1,52.42,58.35Z"/><path class="cls-3" d="M34.46,68.33a2.88,2.88,0,0,0,1.31-.89,6.3,6.3,0,0,0,1.11-5.85,13.25,13.25,0,0,0-2.44-3.09c-1.86-2.28-2.95-5.24-1.76-8.13a9.67,9.67,0,0,1,.85-1.63,7.58,7.58,0,0,0-4.84,7.06V61A7.57,7.57,0,0,0,34.46,68.33Z"/><path class="cls-3" d="M37.42,48.32a4.9,4.9,0,0,0-2.89,4.37,6.69,6.69,0,0,0,2.13,4.82c2.17,2.31,3.31,4.6,2.55,7.86a7.76,7.76,0,0,1-1.34,3,7.56,7.56,0,0,0,6-7.4V55.8A7.58,7.58,0,0,0,37.42,48.32Z"/><polygon class="cls-8" points="46.99 93.68 25.45 93.68 18.16 21.06 6.9 21.06 8.2 33.94 5.89 33.94 11.2 82.76 13.1 82.76 14.73 99.04 36.27 99.04 57.81 99.04 58.35 93.68 46.99 93.68"/></g></g></g></g></svg>