<svg id="Layer_2" data-name="Layer 2" xmlns="http://www.w3.org/2000/svg" width="59.247" height="80.851" viewBox="0 0 59.247 80.851">
  <g id="Capa_1" data-name="Capa 1" transform="translate(1 1)">
    <path id="Path_1" data-name="Path 1" d="M32.419,26.42H8.92l6.263,62.4H49.655l6.263-62.4Z" transform="translate(-3.796 -9.973)" fill="#feffff" stroke="#63372c" stroke-linecap="round" stroke-linejoin="round" stroke-width="2"/>
    <path id="Path_2" data-name="Path 2" d="M52.042,81.426,56.286,42.36H7.67l4.244,39.066Z" transform="translate(-3.354 -15.6)" fill="#e5c797" stroke="#63372c" stroke-linecap="round" stroke-linejoin="round" stroke-width="2"/>
    <path id="Path_3" data-name="Path 3" d="M58.247,23.052H1L2.2,16.88H56.442Z" transform="translate(-1 -6.606)" fill="#b7793e" stroke="#63372c" stroke-linecap="round" stroke-linejoin="round" stroke-width="2"/>
    <rect id="Rectangle_5" data-name="Rectangle 5" width="43.899" height="5.901" transform="translate(6.677 4.374)" fill="#fff" stroke="#63372c" stroke-linecap="round" stroke-linejoin="round" stroke-width="2"/>
    <rect id="Rectangle_6" data-name="Rectangle 6" width="10.579" height="4.27" transform="translate(12.416)" fill="#b7793e" stroke="#63372c" stroke-linecap="round" stroke-linejoin="round" stroke-width="2"/>
    <line id="Line_1" data-name="Line 1" x2="16.402" transform="translate(6.159 22.975)" fill="#f08046" stroke="#673e20" stroke-linecap="round" stroke-linejoin="round" stroke-width="2"/>
    <line id="Line_2" data-name="Line 2" x1="17.152" transform="translate(28.624 70.556)" fill="#f08046" stroke="#63372c" stroke-linecap="round" stroke-linejoin="round" stroke-width="2"/>
    <line id="Line_3" data-name="Line 3" x2="6.735" transform="translate(29.361 22.975)" fill="#f08046" stroke="#673e20" stroke-linecap="round" stroke-linejoin="round" stroke-width="2"/>
    <line id="Line_4" data-name="Line 4" x2="6.735" transform="translate(43.835 22.975)" fill="#f08046" stroke="#673e20" stroke-linecap="round" stroke-linejoin="round" stroke-width="2"/>
    <line id="Line_5" data-name="Line 5" x2="6.735" transform="translate(16.259 70.556)" fill="#f08046" stroke="#63372c" stroke-linecap="round" stroke-linejoin="round" stroke-width="2"/>
    <path id="Path_4" data-name="Path 4" d="M51.09,65.49A12.94,12.94,0,1,1,38.15,52.55,12.94,12.94,0,0,1,51.09,65.49Z" transform="translate(-9.546 -19.197)" fill="#f08046" stroke="#63372c" stroke-linecap="round" stroke-linejoin="round" stroke-width="2"/>
    <path id="Path_5" data-name="Path 5" d="M40.483,76.344a2.323,2.323,0,0,0,1.048-.712,5.06,5.06,0,0,0,.893-4.684,11.406,11.406,0,0,0-1.941-2.472c-1.488-1.825-2.362-4.193-1.41-6.5a7.551,7.551,0,0,1,.679-1.294,6.075,6.075,0,0,0-3.882,5.655v4.141a6.062,6.062,0,0,0,4.613,5.868Z" transform="translate(-13.309 -22.067)" fill="#b7793e" stroke="#63372c" stroke-linecap="round" stroke-linejoin="round" stroke-width="2"/>
    <path id="Path_6" data-name="Path 6" d="M45.4,60.14a3.921,3.921,0,0,0-2.31,3.494A5.318,5.318,0,0,0,44.8,67.516c1.728,1.85,2.64,3.681,2.038,6.289a6.3,6.3,0,0,1-1.081,2.42A6.069,6.069,0,0,0,50.544,70.3V66.131A6.062,6.062,0,0,0,45.4,60.14Z" transform="translate(-15.858 -21.876)" fill="#b7793e" stroke="#63372c" stroke-linecap="round" stroke-linejoin="round" stroke-width="2"/>
  </g>
</svg>
