<svg xmlns="http://www.w3.org/2000/svg" viewBox="0 0 75.23 128.81"><defs><style>.cls-1,.cls-3{fill:#fff;}.cls-1,.cls-2,.cls-4,.cls-5,.cls-6{stroke:#673e20;stroke-width:2px;}.cls-1,.cls-2,.cls-4,.cls-5{stroke-linecap:round;stroke-linejoin:round;}.cls-2{fill:none;}.cls-3{opacity:0.5;}.cls-4{fill:#8db8a5;}.cls-5{fill:#f08046;}.cls-6{fill:#b7793e;stroke-miterlimit:10;}</style></defs><g id="Layer_2" data-name="Layer 2"><g id="Capa_1" data-name="Capa 1"><polygon class="cls-1" points="59.9 1 28.62 127.81 33.02 127.81 63.36 1.97 59.9 1"/><path class="cls-2" d="M68.46,42.08A28.56,28.56,0,0,0,40.29,8.76H34.94A28.56,28.56,0,0,0,6.37,37.32a29.78,29.78,0,0,0,.4,4.76Z"/><polygon class="cls-3" points="37.62 47.99 7.55 47.99 15.57 127.81 37.62 127.81 59.66 127.81 67.68 47.99 37.62 47.99"/><polygon class="cls-4" points="8.91 61.52 15.57 127.81 59.66 127.81 66.32 61.52 8.91 61.52"/><polygon class="cls-4" points="74.23 47.99 1 47.99 2.54 40.09 71.92 40.09 74.23 47.99"/><line class="cls-5" x1="59.56" y1="117.2" x2="37.62" y2="117.2"/><line class="cls-5" x1="57.08" y1="56.33" x2="65.7" y2="56.33"/><line class="cls-5" x1="21.8" y1="117.2" x2="30.42" y2="117.2"/><path class="cls-5" d="M54.15,86.16A16.53,16.53,0,1,1,37.62,69.63,16.53,16.53,0,0,1,54.15,86.16Z"/><path class="cls-6" d="M35.76,96.38a3,3,0,0,0,1.34-.91,6.42,6.42,0,0,0,1.13-6c-.52-1.28-1.64-2.13-2.49-3.17-1.9-2.33-3-5.36-1.8-8.32a10.41,10.41,0,0,1,.87-1.66,7.75,7.75,0,0,0-5,7.22v5.3A7.77,7.77,0,0,0,35.76,96.38Z"/><path class="cls-6" d="M38.79,75.9a5,5,0,0,0-2.95,4.46A6.77,6.77,0,0,0,38,85.3c2.21,2.36,3.38,4.71,2.61,8a8,8,0,0,1-1.38,3.09,7.75,7.75,0,0,0,6.12-7.58v-5.3A7.73,7.73,0,0,0,38.79,75.9Z"/><polygon class="cls-2" points="37.62 47.99 7.55 47.99 15.57 127.81 37.62 127.81 59.66 127.81 67.68 47.99 37.62 47.99"/><line class="cls-5" x1="8.88" y1="56.33" x2="29.86" y2="56.33"/><line class="cls-5" x1="38.56" y1="56.33" x2="47.18" y2="56.33"/></g></g></svg>