<svg xmlns="http://www.w3.org/2000/svg" viewBox="0 0 91.67 110"><defs><style>.cls-1{fill:#0f131b;}</style></defs><g id="Layer_2" data-name="Layer 2"><g id="Layer_4" data-name="Layer 4"><path class="cls-1" d="M84.33,0h-77A7.34,7.34,0,0,0,.66,4.32a7.24,7.24,0,0,0-.66,3v95.34A7.35,7.35,0,0,0,7.33,110h77a7.2,7.2,0,0,0,3-.66,7.35,7.35,0,0,0,4.33-6.67V7.33A7.36,7.36,0,0,0,84.33,0ZM75.65,95.33H16A3.67,3.67,0,1,1,16,88H75.65a3.67,3.67,0,1,1,0,7.33Zm0-18.33H16a3.67,3.67,0,1,1,0-7.33H75.65a3.67,3.67,0,1,1,0,7.33Zm0-18.33H16a3.67,3.67,0,1,1,0-7.34H75.65a3.67,3.67,0,0,1,0,7.34Zm0-18.34H16A3.67,3.67,0,1,1,16,33H75.65a3.67,3.67,0,1,1,0,7.33Zm0-18.33H16a3.67,3.67,0,1,1,0-7.33H75.65a3.67,3.67,0,1,1,0,7.33Z"/></g></g></svg>