<svg xmlns="http://www.w3.org/2000/svg" viewBox="0 0 67.86 65.41"><defs><style>.cls-1{fill:#0f131b;}</style></defs><g id="Layer_2" data-name="Layer 2"><g id="_18" data-name="18"><path class="cls-1" d="M66.44,28,36.88,1.14a4.4,4.4,0,0,0-5.91,0L1.42,28a4.37,4.37,0,0,0-.28,6.17h0a4.45,4.45,0,0,0,3.24,1.42,4.32,4.32,0,0,0,3-1.14L33.92,10.27,60.51,34.48A4.38,4.38,0,0,0,66.44,28ZM10.52,35.57V62.94a2.34,2.34,0,0,0,1.24,2,3.7,3.7,0,0,0,1.87.48h40.6a3.7,3.7,0,0,0,1.87-.48,2.36,2.36,0,0,0,1.24-2V35.57L33.92,14.28Zm13.76-2.16H43.51V46.82H24.28ZM6.08,3.51l18,.56L7.21,20.34Z"/></g></g></svg>