<svg xmlns="http://www.w3.org/2000/svg" viewBox="0 0 49.59 110.08"><defs><style>.cls-1,.cls-4{fill:#fff;}.cls-1,.cls-2,.cls-3{stroke:#141824;}.cls-1{stroke-miterlimit:10;}.cls-2{fill:#65bebd;}.cls-2,.cls-3{stroke-linecap:round;stroke-linejoin:round;}.cls-3{fill:#f9bc17;}</style></defs><g id="Layer_2" data-name="Layer 2"><g id="Layer_2-2" data-name="Layer 2"><g id="Soda"><path class="cls-1" d="M46.9,105.75c0,2.12-9.69,3.83-21.64,3.83s-21.63-1.71-21.63-3.83,9.69-3.82,21.63-3.82S46.9,103.64,46.9,105.75Z"/><path class="cls-1" d="M46.9,104.56c0,2.11-9.69,3.83-21.64,3.83s-21.63-1.72-21.63-3.83,9.69-3.83,21.63-3.83S46.9,102.44,46.9,104.56Z"/><path class="cls-2" d="M2.35,19.64a4.49,4.49,0,0,1-.67-2.79,5.12,5.12,0,0,1,4.16-4.38c0-.05,0-.09,0-.14,0-3.35,3-6.08,6.75-6.08a7.42,7.42,0,0,1,1.84.24,4.41,4.41,0,0,1,3.76-2h.29a6.37,6.37,0,0,1,6.11-4,6.35,6.35,0,0,1,6.15,4.18A4.79,4.79,0,0,1,32,4.52,4.4,4.4,0,0,1,35.9,6.81a7.36,7.36,0,0,1,2.8-.56c3.73,0,6.75,2.73,6.75,6.08a5.83,5.83,0,0,1-.07.84,2.75,2.75,0,0,1,1.71,2.47,2.6,2.6,0,0,1-.18.92,4.76,4.76,0,0,1,2.18,3.92,5.22,5.22,0,0,1-5.47,4.92c-3,0-38.35-.46-40-.46A2.93,2.93,0,0,1,.5,22.17,2.76,2.76,0,0,1,2.35,19.64Z"/><path class="cls-1" d="M25.05,104.4c-7.66,0-10.88-3-10.88-3s13-4.32,4.07-19.78C13.58,79.72,2.73,71.14,2.73,59.3c0-14.58,6.08-21.61-.55-33H48.23c-6.62,11.39-.54,18.42-.54,33,0,12.36-11.83,21.17-16.08,22.55-10.15,14.05,3.85,19.57,3.85,19.57S34,103,30.37,103.83"/><path class="cls-3" d="M42.91,40.7C43.4,45.69,45,51,45,58.34c0,11.39-10.39,19.51-14.13,20.78-3.51,1.35-8.63,2.12-11.74-.19C15.06,77.17,5.52,69.25,5.52,58.34c0-7.37,1.61-12.65,2.1-17.64Z"/><path class="cls-1" d="M2.24,28.1H47.69c1.32.23,1.32-2.85,0-2.7H2.24C.92,25.25.92,28.33,2.24,28.1Z"/><path class="cls-4" d="M17.27,47.3a1,1,0,1,0,1-1A1,1,0,0,0,17.27,47.3Z"/><path class="cls-4" d="M11.86,53.26a3.22,3.22,0,1,0,3.21-3.21A3.22,3.22,0,0,0,11.86,53.26Z"/><path class="cls-4" d="M13.32,48.18a.88.88,0,1,0,.88-.88A.87.87,0,0,0,13.32,48.18Z"/><path class="cls-4" d="M8.3,52.51a1.44,1.44,0,0,0,2.87,0,1.44,1.44,0,1,0-2.87,0Z"/><path class="cls-4" d="M13.68,58.19a1,1,0,1,0,2,0,1,1,0,0,0-2,0Z"/><path class="cls-4" d="M10.3,58.43a.78.78,0,1,0,.78-.78A.78.78,0,0,0,10.3,58.43Z"/><path class="cls-4" d="M12.93,63.44a1.84,1.84,0,1,0,1.83-1.84A1.83,1.83,0,0,0,12.93,63.44Z"/></g></g></g></svg>