<svg xmlns="http://www.w3.org/2000/svg" viewBox="0 0 63.24 108.89"><defs><style>.cls-1{fill:#fff;}.cls-1,.cls-2,.cls-3,.cls-4,.cls-5{stroke:#141824;}.cls-1,.cls-2{stroke-miterlimit:10;}.cls-2{fill:none;}.cls-3{fill:#65bebd;}.cls-3,.cls-4,.cls-5{stroke-linecap:round;stroke-linejoin:round;}.cls-4{fill:#f9bc17;}.cls-5{fill:#f15d2f;}</style></defs><g id="Layer_2" data-name="Layer 2"><g id="Layer_2-2" data-name="Layer 2"><polygon class="cls-1" points="50.55 0.62 23.97 108.39 27.71 108.39 53.49 1.44 50.55 0.62"/><path class="cls-2" d="M57.83,35.53A24.27,24.27,0,0,0,33.89,7.21H29.34A24.27,24.27,0,0,0,5.41,35.53Z"/><polygon class="cls-2" points="31.62 40.55 6.07 40.55 12.88 108.39 31.62 108.39 50.35 108.39 57.17 40.55 31.62 40.55"/><polygon class="cls-3" points="7.22 52.06 12.88 108.39 50.35 108.39 56.01 52.06 7.22 52.06"/><polygon class="cls-4" points="62.73 40.55 0.5 40.55 1.81 33.84 60.77 33.84 62.73 40.55"/><line class="cls-2" x1="50.27" y1="99.37" x2="31.62" y2="99.37"/><line class="cls-2" x1="48.16" y1="47.64" x2="55.48" y2="47.64"/><line class="cls-2" x1="18.17" y1="99.37" x2="25.5" y2="99.37"/><path class="cls-5" d="M45.67,73a14.05,14.05,0,1,1-14-14A14,14,0,0,1,45.67,73Z"/><path class="cls-4" d="M30,81.67a2.42,2.42,0,0,0,1.14-.77,5.47,5.47,0,0,0,1-5.09A11.4,11.4,0,0,0,30,73.12c-1.62-2-2.57-4.56-1.54-7.07a8.54,8.54,0,0,1,.74-1.41A6.57,6.57,0,0,0,25,70.78v4.5A6.57,6.57,0,0,0,30,81.67Z"/><path class="cls-4" d="M32.62,64.27a4.24,4.24,0,0,0-2.51,3.8A5.77,5.77,0,0,0,32,72.26c1.88,2,2.88,4,2.22,6.84A6.91,6.91,0,0,1,33,81.72a6.59,6.59,0,0,0,5.2-6.44v-4.5A6.59,6.59,0,0,0,32.62,64.27Z"/><polygon class="cls-2" points="31.62 40.55 6.07 40.55 12.88 108.39 31.62 108.39 50.35 108.39 57.17 40.55 31.62 40.55"/><line class="cls-2" x1="7.2" y1="47.64" x2="25.03" y2="47.64"/><line class="cls-2" x1="32.42" y1="47.64" x2="39.74" y2="47.64"/></g></g></svg>